<svg viewBox="0 0 395.52 52.58072709991789" height="52.58072709991789" width="395.52" data-background-color="#ffffff" preserveAspectRatio="xMidYMid meet" id="tight-bounds" xmlns="http://www.w3.org/2000/svg" xmlns:xlink="http://www.w3.org/1999/xlink"><g><svg viewBox="0 0 590.1920055213401 78.46057033492824" height="52.58072709991789" width="395.52"><g><rect width="5.119866283728229" height="57.057071770334915" x="176.1493479189516" y="10.70174928229666" fill="#e8772e" opacity="1" stroke-width="0" stroke="transparent" fill-opacity="1" class="rect-i-0" data-fill-palette-color="secondary" rx="1%" id="i-0" data-palette-color="#e8772e"></rect></g><g transform="matrix(1,0,0,1,194.67200552134014,10.843682296650723)"><svg viewBox="0 0 395.52 56.77320574162679" height="56.77320574162679" width="395.52"><g id="textblocktransform"><svg viewBox="0 0 395.52 56.77320574162679" height="56.77320574162679" width="395.52" id="textblock"><g><svg viewBox="0 0 395.52 56.77320574162679" height="56.77320574162679" width="395.52"><g transform="matrix(1,0,0,1,0,0)"><svg width="395.52" viewBox="2.690000057220459 -31.739999771118164 224.489990234375 32.22999954223633" height="56.77320574162679" data-palette-color="#ba3b0a"><path d="M32.42-13.18L20.26-13.18 20.26-11.91 24.66-11.91 24.66-4.3Q22.22-1.37 18.12-1.03L18.12-1.03Q17.72-0.98 17.33-0.98L17.33-0.98Q7.62-1.07 7.57-14.65L7.57-14.65Q7.57-26.27 14.6-28.13L14.6-28.13Q15.82-28.42 17.19-28.42L17.19-28.42Q22.22-28.42 24.46-25.63L24.46-25.63Q25.93-23.73 27.1-19.68L27.1-19.68 28.37-19.68 28.13-29.15 23.88-28.27Q20.8-29.79 17.33-29.79L17.33-29.79Q11.47-29.79 7.28-25.93L7.28-25.93Q2.69-21.68 2.69-14.84L2.69-14.84Q2.69-7.03 8.25-2.64L8.25-2.64Q12.3 0.49 17.33 0.49L17.33 0.49Q21 0.49 23.97-1.12L23.97-1.12Q24.37-1.32 24.61-1.51L24.61-1.51 28.76 0 28.76-11.91 32.42-11.91 32.42-13.18ZM52.98 0.49L52.98 0.49Q56.74 0.49 57.13-4.05L57.13-4.05Q57.18-4.35 57.18-4.59L57.18-4.59 55.91-4.64Q55.56-1.07 54-1.03L54-1.03Q52.73-1.12 52.68-3.56L52.68-3.56 52.68-13.87Q52.68-20.85 45.7-21.24L45.7-21.24Q45.26-21.24 44.82-21.24L44.82-21.24Q39.35-21.24 37.5-18.7L37.5-18.7Q36.91-17.87 36.91-17.04L36.91-17.04Q36.91-15.53 38.33-15.28L38.33-15.28Q38.57-15.23 38.82-15.23L38.82-15.23Q39.94-15.23 40.48-16.65L40.48-16.65Q41.16-18.46 41.4-18.8L41.4-18.8Q42.33-20.02 44.28-20.02L44.28-20.02Q48.87-19.73 49.02-14.99L49.02-14.99 49.02-11.91Q37.55-11.91 35.89-7.13L35.89-7.13Q35.59-6.2 35.59-5.13L35.59-5.13Q35.59-1.42 38.86-0.05L38.86-0.05Q40.18 0.49 41.65 0.49L41.65 0.49Q45.21 0.49 47.65-1.95L47.65-1.95Q48.53-2.88 48.97-3.91L48.97-3.91Q49.56 0.44 52.98 0.49ZM43.26-1.46L43.26-1.46Q40.28-1.46 39.6-4.44L39.6-4.44Q39.45-5.13 39.45-5.96L39.45-5.96Q39.45-9.23 43.21-10.11L43.21-10.11Q45.21-10.55 49.02-10.6L49.02-10.6 49.02-6.69Q48.29-3.32 45.46-1.95L45.46-1.95Q44.33-1.46 43.26-1.46ZM68.4-1.22L68.4-1.22 66.21-1.22 66.21-11.77Q66.35-16.06 69.18-18.16L69.18-18.16Q70.5-19.14 71.82-19.14L71.82-19.14Q74.26-19.14 75.19-16.46L75.19-16.46Q75.58-15.28 75.58-13.82L75.58-13.82 75.58-4.15Q75.58-1.9 74.51-1.46L74.51-1.46Q73.82-1.22 72.16-1.22L72.16-1.22 72.16 0 82.66 0Q82.66-1.07 81.93-1.17L81.93-1.17Q81.73-1.22 81.44-1.22L81.44-1.22 79.24-1.22 79.24-13.33 79.24-13.72Q80.02-17.29 82.71-18.7L82.71-18.7Q83.74-19.19 84.66-19.19L84.66-19.19Q87.15-19.19 88.18-16.6L88.18-16.6Q88.67-15.38 88.67-13.82L88.67-13.82 88.67-4.15Q88.67-1.9 87.59-1.46L87.59-1.46Q86.91-1.22 85.25-1.22L85.25-1.22 85.25 0 96.04 0Q96.04-1.07 95.31-1.17L95.31-1.17Q95.11-1.22 94.82-1.22L94.82-1.22 92.33-1.22 92.33-13.33Q92.33-18.36 89.06-20.36L89.06-20.36Q87.59-21.24 85.88-21.24L85.88-21.24Q82.17-21.24 79.93-17.77L79.93-17.77Q79.34-16.89 78.95-15.92L78.95-15.92Q78.07-19.78 75.09-20.9L75.09-20.9Q74.21-21.24 73.29-21.24L73.29-21.24Q69.77-21.24 67.48-18.26L67.48-18.26Q66.65-17.19 66.16-15.87L66.16-15.87 65.96-20.75 58.88-20.75 58.88-19.53 62.54-19.53 62.54-4.15Q62.54-1.9 61.27-1.46L61.27-1.46Q60.54-1.22 58.88-1.22L58.88-1.22 58.88 0 69.62 0Q69.62-1.03 68.89-1.17L68.89-1.17Q68.65-1.22 68.4-1.22ZM109.42-20.02L109.42-20.02Q112.83-20.02 113.96-17.14L113.96-17.14Q114.35-16.21 114.35-15.14L114.35-15.14Q114.35-12.7 112-12.16L112-12.16Q110.78-11.91 108.54-11.96L108.54-11.96 103.36-12.11Q103.61-17.72 107.02-19.43L107.02-19.43Q108.15-20.02 109.42-20.02ZM117.91-4.69L117.91-4.69 116.69-5.13Q114.98-1.42 111.17-0.93L111.17-0.93Q110.69-0.88 110.25-0.88L110.25-0.88Q105.12-0.88 103.8-6.98L103.8-6.98Q103.41-8.69 103.36-10.74L103.36-10.74 109.22-10.64Q115.18-10.55 116.89-11.77L116.89-11.77Q118.21-12.74 118.21-14.55L118.21-14.55Q118.21-17.87 114.84-19.82L114.84-19.82Q112.44-21.24 109.32-21.24L109.32-21.24Q103.22-21.24 100.58-16.16L100.58-16.16Q99.21-13.53 99.21-10.21L99.21-10.21Q99.21-4.15 103.56-1.22L103.56-1.22Q106.14 0.49 109.47 0.49L109.47 0.49Q114.74 0.49 117.23-3.32L117.23-3.32Q117.62-4 117.91-4.69ZM139.3 0L149.84 0Q149.84-1.07 149.06-1.22L149.06-1.22Q148.82-1.27 148.57-1.27L148.57-1.27 146.91-1.27 135.73-29.3 133.93-29.3 122.99-1.27 119.91-1.27 119.91 0 128.6 0Q128.6-1.07 127.82-1.22L127.82-1.22Q127.58-1.27 127.33-1.27L127.33-1.27 124.94-1.27 128.6-10.74 138.81-10.74 142.47-1.27 139.3-1.27 139.3 0ZM133.68-23.97L138.27-12.16 129.14-12.16 133.68-23.97ZM160.83-1.22L160.83-1.22 158.63-1.22 158.63-11.77Q158.78-16.31 161.85-18.31L161.85-18.31Q163.17-19.14 164.54-19.14L164.54-19.14Q167.52-19.14 168.59-16.36L168.59-16.36Q169.03-15.23 169.03-13.82L169.03-13.82 169.03-4.15Q169.03-1.9 167.76-1.46L167.76-1.46Q167.03-1.22 165.37-1.22L165.37-1.22 165.37 0 176.35 0Q176.35-1.07 175.62-1.17L175.62-1.17Q175.43-1.22 175.13-1.22L175.13-1.22 172.69-1.22 172.69-13.33Q172.69-18.21 169.32-20.31L169.32-20.31Q167.76-21.24 165.95-21.24L165.95-21.24Q162.34-21.24 160-18.36L160-18.36Q159.12-17.24 158.58-15.87L158.58-15.87 158.39-20.75 151.31-20.75 151.31-19.53 154.97-19.53 154.97-4.15Q154.97-1.9 153.7-1.46L153.7-1.46Q152.97-1.22 151.31-1.22L151.31-1.22 151.31 0 162.05 0Q162.05-1.07 161.32-1.17L161.32-1.17Q161.12-1.22 160.83-1.22ZM183.77-19.53L187.19-19.53 187.19-20.75 177.72-20.75 177.72-19.53 179.92-19.53 185.87-3.17Q186.85-0.44 188.02 0L188.02 0Q188.61 0.24 189.49 0.24L189.49 0.24 190.12 0.24 197.01-17.82Q197.59-19.34 198.42-19.48L198.42-19.48Q198.67-19.53 198.86-19.53L198.86-19.53Q199.94-19.53 200.03-20.26L200.03-20.26Q200.08-20.51 200.08-20.75L200.08-20.75 192.56-20.75 192.56-19.53 196.23-19.53 190.02-2.88 183.77-19.53ZM211.7-1.22L211.7-1.22 209.26-1.22 209.26-20.75 201.69-20.75 201.69-19.53 205.6-19.53 205.6-4.15Q205.6-1.9 204.08-1.42L204.08-1.42Q203.35-1.22 201.69-1.22L201.69-1.22 201.69 0 212.92 0Q212.92-1.07 212.19-1.17L212.19-1.17Q211.95-1.22 211.7-1.22ZM209.85-27.88L209.85-27.88Q209.85-29.59 208.33-30.32L208.33-30.32Q207.75-30.57 207.21-30.57L207.21-30.57Q205.5-30.57 204.77-29L204.77-29Q204.52-28.47 204.52-27.88L204.52-27.88Q204.52-26.07 206.13-25.39L206.13-25.39Q206.67-25.2 207.21-25.2L207.21-25.2Q208.92-25.2 209.6-26.76L209.6-26.76Q209.85-27.29 209.85-27.88ZM225.96-1.22L225.96-1.22 223.32-1.22 223.32-31.74 216-31.74 216-30.52 219.66-30.52 219.66-4.15Q219.66-1.9 218.39-1.46L218.39-1.46Q217.66-1.22 216-1.22L216-1.22 216 0 227.18 0Q227.18-1.07 226.44-1.17L226.44-1.17Q226.25-1.22 225.96-1.22Z" opacity="1" transform="matrix(1,0,0,1,0,0)" fill="#ba3b0a" class="wordmark-text-0" data-fill-palette-color="primary" id="text-0"></path></svg></g></svg></g></svg></g></svg></g><g><svg viewBox="0 0 162.7465566002913 78.46057033492824" height="78.46057033492824" width="162.7465566002913"><g><svg xmlns="http://www.w3.org/2000/svg" xml:space="preserve" viewBox="5 25.939998626708984 89.99990844726562 48.119998931884766" x="8" y="0" height="78.46057033492824" width="146.7465566002913" class="icon-icon-0" data-fill-palette-color="accent" id="icon-0"><path d="M17.429 29.594c0.235 0.256 0.567 0.401 0.914 0.401h4.125c0.395 0 0.6-0.469 0.333-0.76l-0.416-0.452a1.24 1.24 0 0 0-0.914-0.401h-4.125c-0.395 0-0.6 0.469-0.333 0.76z" fill="#e8772e" data-fill-palette-color="accent"></path><path d="M94.351 29.255h-0.019l-24.655 0.636 1.594 1.57h-7.965v-0.591c0-0.44-0.175-0.863-0.486-1.174l-3.173-3.173a2 2 0 0 0-1.407-0.583H6.185A1.186 1.186 0 0 0 5 27.125v2.494c0 0.676 0.274 1.324 0.76 1.794l4.724 4.578a3.8 3.8 0 0 0 1.163 0.77l13.707 5.792c5.786 2.445 5.596 10.709-0.296 12.886l-5.698 2.105a0.705 0.705 0 0 0-0.461 0.662v1.899c0 0.421 0.137 0.83 0.391 1.166l9.192 12.167c0.296 0.392 0.759 0.622 1.248 0.622l0.07-0.002 4.888-0.217a17.38 17.38 0 0 1 18.226-4.476l9.491 3.246 3.521-0.156a0.68 0.68 0 0 0 0.65-0.714l-0.155-3.162a2.4 2.4 0 0 0-0.461-1.297l-7.304-9.932c-3.306-4.496-1.191-10.914 4.142-12.557 7.259-2.237 16.139-5.137 20.083-7.07 2.644-1.296 8.726-5.236 11.825-7.274 0.541-0.357 0.284-1.194-0.355-1.194M7.064 27.572h51.175c0.096 0 0.185 0.037 0.253 0.105l3.173 3.173a0.03 0.03 0 0 1 0.009 0.021v0.042H11.128z m19.045 38.701l-5.543-7.435 1.54-0.569 4.89 6.558a15 15 0 0 1-0.887 1.446m2.172-4.51a16 16 0 0 1-0.52 1.455L23.647 57.7l1.54-0.569 3.196 4.286z m0.59-2.326l-2.191-2.938a8.5 8.5 0 0 0 1.326-0.857l1.21 1.623a23 23 0 0 1-0.345 2.172m22.584 7.826a19 19 0 0 0-1.567-0.285V57.84a10 10 0 0 0-1.575-0.353v9.339a18 18 0 0 0-1.575-0.017v-9.41q-0.789 0.017-1.575 0.157v9.365q-0.794 0.09-1.575 0.247v-9.201q-0.826 0.29-1.575 0.708v8.88a19 19 0 0 0-1.575 0.534v-8.325a9.8 9.8 0 0 0-1.575 1.684v7.332q-0.807 0.4-1.575 0.875v-5.01l-1.575 4.792v0.867l-1.828-0.043L36 63.823c1.28-3.895 4.437-6.741 8.443-7.613a11.37 11.37 0 0 1 7.012 0.679z m30.708-31.006c-3.028 1.484-9.678 3.83-19.248 6.791 1.899-1.553 4.214-2.608 6.419-3.418 1.139-0.419 2.333-0.792 3.596-1.188 3.034-0.95 8.989-3.312 11.715-5.015l-11.507 3.784-0.696 0.219c-1.283 0.402-2.494 0.781-3.671 1.213-3.244 1.191-5.673 2.431-8.045 5.236-2.263 1.152-3.968 3.128-4.787 5.609-1.002 3.036-0.491 6.254 1.403 8.829l7.161 9.738-1.051 0.294-1.371-0.721c-0.335-0.701-1.83-3.798-2.563-4.756-0.801-1.045-3.463-3.755-3.566-3.859-3.004-3.249-7.378-4.627-11.701-3.686s-7.729 4.012-9.111 8.215l-2.093 6.367H29.47l4.181-10.759a12.61 12.61 0 0 0-3.228-13.859q-0.049-0.102-0.101-0.202h25.641c0.509-0.527 1.02-1.044 1.522-1.575H29.309a8.4 8.4 0 0 0-1.708-1.575h31.284a20 20 0 0 0 1.168-1.575H24.361l-3.728-1.575h40.383q0.46-0.833 0.784-1.575H16.906l-3.728-1.575H62.4c0.196-0.611 0.322-1.141 0.402-1.575H11.128v-1.575h50.546v0.606h13.578l-1.695-1.669 17.351-0.448c-4.12 2.656-7.233 4.538-8.745 5.279" fill="#e8772e" data-fill-palette-color="accent"></path><path d="M65.246 29.19c0.203 0 0.395 0.079 0.539 0.223l0.961 0.961h2.307l-2.114-2.114a2.38 2.38 0 0 0-1.692-0.701h-3.054l1.631 1.631z" fill="#e8772e" data-fill-palette-color="accent"></path></svg></g></svg></g></svg></g><defs></defs></svg>